<svg xmlns="http://www.w3.org/2000/svg" xmlns:xlink="http://www.w3.org/1999/xlink" width="375" height="667" viewBox="0 0 375 667"><defs><clipPath id="a"><rect width="375" height="667" fill="none"/></clipPath><clipPath id="c"><rect width="375" height="667"/></clipPath></defs><g id="b" clip-path="url(#c)"><g clip-path="url(#a)"><g transform="translate(-57.08 -27.976)" opacity="0.076"><circle cx="84.471" cy="84.471" r="84.471" transform="matrix(0.999, -0.053, 0.053, 0.999, 192.558, 299.75)" fill="#db5316"/><path d="M493.953,627.307a237.656,237.656,0,0,0-22.778-12.85L438.4,406.739c10.664-13.049,42.4-61.681,42.155-163.358C480.548,193.836,473.24,131.716,453,54.518a30.04,30.04,0,1,0-58.114,15.246c19.136,72.98,25.587,130.005,25.587,173.617-.008,50.4-8.55,82.9-16.215,102.154a118.782,118.782,0,0,1-8.325,17.131L259.154,402.275a28.839,28.839,0,0,0-10.5,5.584c-8,5.178-53.319,31.445-102.732,31.006-26.856-.135-54.565-6.752-82.646-27.731l4.8-27.056c3.3-19.635,20.368-45.655,36.9-65.711,8.227-10.094,16.252-18.839,22.2-25.028,5.873-6.117,9.609-9.639,9.7-9.741,23.571-15.82,41.3-42.729,47.04-74.775C193.943,151.869,162.9,97.1,111.537,87.732c-51.46-8.881-99.454,31.84-109.664,88.759-5.64,32.061,1.731,63.42,18.408,86.39.015.019,2.317,4.641,5.764,12.493a390.259,390.259,0,0,1,18.239,50.367c5.524,19.7,8.686,40.488,6.008,55.121a.146.146,0,0,1-.008.056L46.4,402.793a30.035,30.035,0,0,0-23.368,53.232c4.063,3.226,8.179,6.185,12.313,9L32.7,479.915l17.8,3.162,1.4-7.912a194.153,194.153,0,0,0,93.265,23.789h.751c43.83-.293,81.107-13.18,105.838-24.682l61.452,178.487c0,.135-.015.263-.015.4h-.007c0,.075,0,30.3-20.555,73.983-20.676,43.694-61.52,101.463-147.729,157.684a46.937,46.937,0,1,0,51.186,78.692c99.935-64.869,153.9-137.459,181.5-196.429,14.754-31.378,22.114-58.606,25.809-78.85l3.417-.864a46.844,46.844,0,0,0,13.515,7.187c.428.158,1.506.56,3.2,1.281,7.912,3.259,27.457,13.15,42.793,29.136a97.736,97.736,0,0,1,19.429,28.317c4.889,11.066,8.122,23.875,8.164,40.469.007,25.257-7.946,60.322-34.476,107.332a46.941,46.941,0,1,0,81.752,46.158c32.32-57.22,46.586-108.207,46.6-153.49.068-34.806-8.712-65.6-22.027-90.415C545.729,665.928,517,642.113,493.953,627.307ZM74.268,297.59a82.705,82.705,0,0,0,24.055.612q-3.6,4.163-7.349,8.734A302.493,302.493,0,0,0,66.5,341.3a301.1,301.1,0,0,0-11.149-40.7q-1.938-5.582-3.894-10.728A82.918,82.918,0,0,0,74.268,297.59Zm346.2,397.023,0,0s0,0,.008,0Z" transform="translate(0 88.412)" fill="#db5316"/><circle cx="42.241" cy="42.241" r="42.241" transform="translate(256.064 0)" fill="#db5316"/></g></g></g></svg>
